<svg width="71" height="71" viewBox="0 0 71 71" fill="none" xmlns="http://www.w3.org/2000/svg">
<rect x="0.705811" y="0.792114" width="70" height="70" fill="white"/>
<path fill-rule="evenodd" clip-rule="evenodd" d="M36.0303 7.64969C25.9357 7.64969 17.7493 15.8339 17.7493 25.9307C17.7493 34.0076 22.9872 40.8602 30.251 43.2772C31.1645 43.4465 31.5001 42.8806 31.5001 42.3977C31.5001 41.962 31.4829 40.5216 31.4752 38.9945C26.389 40.1001 25.3161 36.8375 25.3161 36.8375C24.4846 34.7243 23.2862 34.1623 23.2862 34.1623C21.6276 33.0279 23.4108 33.0511 23.4108 33.0511C25.2469 33.18 26.2137 34.9353 26.2137 34.9353C27.8439 37.73 30.4904 36.9217 31.5332 36.4547C31.6978 35.273 32.1713 34.4661 32.6942 34.0097C28.6337 33.5478 24.3652 31.9799 24.3652 24.9751C24.3652 22.9792 25.0793 21.3486 26.2489 20.0681C26.059 19.6075 25.4334 17.7478 26.4259 15.2298C26.4259 15.2298 27.9608 14.7391 31.4533 17.1045C32.9121 16.6993 34.4761 16.4961 36.0295 16.4892C37.5832 16.4965 39.1481 16.6998 40.6091 17.1045C44.0981 14.7395 45.6313 15.2302 45.6313 15.2302C46.6264 17.7482 46.0008 19.6075 45.8109 20.0685C46.9831 21.3481 47.692 22.9792 47.692 24.9755C47.692 31.9966 43.4154 33.5427 39.3445 33.9947C40.0002 34.5619 40.5846 35.6748 40.5846 37.3806C40.5846 39.8264 40.564 41.7948 40.564 42.3968C40.564 42.8823 40.8931 43.453 41.8195 43.2734C49.0795 40.8534 54.3105 34.0033 54.3105 25.929C54.3114 15.8344 46.1267 7.64969 36.0303 7.64969Z" fill="#181616"/>
<path d="M24.6736 33.8967C24.6328 33.9878 24.4897 34.0149 24.36 33.9526C24.2268 33.8924 24.1529 33.7691 24.1958 33.6776C24.2345 33.5848 24.378 33.5586 24.5108 33.6209C24.644 33.681 24.7192 33.8056 24.6736 33.8967ZM25.414 34.7234C25.3268 34.8038 25.1562 34.7664 25.0402 34.6384C24.9207 34.5107 24.8984 34.3402 24.9869 34.2585C25.0763 34.1777 25.2417 34.2155 25.3607 34.3432C25.481 34.4721 25.5047 34.6409 25.4136 34.723L25.414 34.7234ZM26.1346 35.7753C26.0229 35.8535 25.8394 35.7805 25.7264 35.6176C25.6138 35.4556 25.6138 35.261 25.7285 35.1823C25.842 35.1041 26.0224 35.1746 26.1367 35.3357C26.2493 35.5012 26.2493 35.6963 26.1346 35.7753ZM27.122 36.7928C27.0219 36.9032 26.8083 36.8736 26.6523 36.7228C26.4925 36.5754 26.4482 36.3661 26.5484 36.2557C26.6502 36.1453 26.8646 36.1762 27.0219 36.3257C27.1809 36.4727 27.229 36.6828 27.122 36.7928ZM28.485 37.3832C28.4403 37.5267 28.2349 37.5916 28.0278 37.531C27.8207 37.4683 27.6857 37.3007 27.727 37.1563C27.77 37.012 27.9771 36.9445 28.1855 37.0094C28.3917 37.0712 28.5275 37.2371 28.485 37.3832ZM29.9803 37.4928C29.9859 37.6432 29.8101 37.7686 29.5927 37.7712C29.3744 37.7764 29.1974 37.6543 29.1948 37.5057C29.1948 37.3536 29.3667 37.2298 29.585 37.2264C29.8024 37.2221 29.9803 37.3432 29.9803 37.4928ZM31.3725 37.256C31.3982 37.403 31.2479 37.5542 31.0317 37.5942C30.8195 37.6337 30.6235 37.5426 30.596 37.3965C30.5702 37.2461 30.7236 37.0957 30.9355 37.0562C31.1516 37.0184 31.345 37.1065 31.3725 37.256Z" fill="#181616"/>
<path d="M19.2101 53.536H14.6124C14.5555 53.536 14.5008 53.5587 14.4605 53.5989C14.4202 53.6392 14.3976 53.6939 14.3976 53.7509V55.999C14.3976 56.056 14.4202 56.1106 14.4605 56.1509C14.5008 56.1912 14.5555 56.2138 14.6124 56.2138H16.4055V59.0068C16.4055 59.0068 16.0029 59.1443 14.8887 59.1443C13.5756 59.1443 11.7404 58.6648 11.7404 54.6291C11.7404 50.5931 13.6516 50.0616 15.446 50.0616C16.9989 50.0616 17.6675 50.3348 18.0938 50.4668C18.227 50.5071 18.3516 50.3739 18.3516 50.2554L18.8642 48.0833C18.865 48.0508 18.8579 48.0185 18.8436 47.9893C18.8292 47.9601 18.808 47.9349 18.7817 47.9157C18.6085 47.792 17.5541 47.2024 14.8896 47.2024C11.8199 47.2024 8.67114 48.5078 8.67114 54.7864C8.67114 61.0641 12.2762 61.9996 15.3141 61.9996C17.8295 61.9996 19.3553 60.9245 19.3553 60.9245C19.4181 60.8901 19.4249 60.802 19.4249 60.7612V53.7504C19.4249 53.6934 19.4023 53.6388 19.362 53.5985C19.3217 53.5582 19.2671 53.536 19.2101 53.536ZM42.6929 47.7387H40.1036C40.0754 47.7388 40.0474 47.7445 40.0214 47.7554C39.9953 47.7663 39.9717 47.7823 39.9518 47.8024C39.9319 47.8224 39.9162 47.8462 39.9056 47.8724C39.8949 47.8985 39.8895 47.9266 39.8897 47.9548L39.8905 52.9581H35.8549V47.9548C35.8551 47.9266 35.8497 47.8986 35.839 47.8725C35.8284 47.8464 35.8127 47.8226 35.7929 47.8025C35.773 47.7824 35.7495 47.7665 35.7235 47.7555C35.6975 47.7446 35.6696 47.7388 35.6413 47.7387H33.0525C33.0242 47.7388 32.9963 47.7445 32.9702 47.7554C32.9442 47.7663 32.9205 47.7823 32.9007 47.8024C32.8808 47.8224 32.8651 47.8462 32.8544 47.8724C32.8437 47.8985 32.8383 47.9266 32.8385 47.9548V61.5029C32.8385 61.6219 32.9347 61.719 33.0525 61.719H35.6413C35.6696 61.7188 35.6975 61.7131 35.7236 61.7021C35.7496 61.6911 35.7732 61.6751 35.793 61.655C35.8129 61.6349 35.8285 61.611 35.8392 61.5849C35.8498 61.5587 35.8551 61.5307 35.8549 61.5024V55.7077H39.8905L39.8836 61.5024C39.8836 61.6219 39.9799 61.719 40.0985 61.719H42.6929C42.7212 61.7188 42.7491 61.7131 42.7752 61.7021C42.8012 61.6911 42.8248 61.6751 42.8446 61.655C42.8645 61.6349 42.8801 61.611 42.8908 61.5849C42.9014 61.5587 42.9067 61.5307 42.9065 61.5024V47.9544C42.9065 47.8349 42.812 47.7387 42.6929 47.7387ZM22.4263 48.0468C21.505 48.0468 20.7574 48.8 20.7574 49.7324C20.7574 50.6636 21.505 51.4189 22.4263 51.4189C23.3484 51.4189 24.0956 50.6636 24.0956 49.7324C24.0956 48.8 23.348 48.0468 22.4263 48.0468ZM23.6965 52.1752H21.1158C20.9972 52.1752 20.8915 52.2972 20.8915 52.4158V61.3757C20.8915 61.6391 21.0556 61.7173 21.2679 61.7173H23.5925C23.8481 61.7173 23.9104 61.5918 23.9104 61.3714V58.6446V52.3913C23.9106 52.3631 23.9051 52.3352 23.8944 52.309C23.8837 52.2829 23.868 52.2592 23.8481 52.2392C23.8283 52.2191 23.8046 52.2032 23.7786 52.1923C23.7526 52.1814 23.7247 52.1753 23.6965 52.1752ZM52.7459 52.1954H50.1764C50.1482 52.1956 50.1203 52.2014 50.0943 52.2124C50.0683 52.2234 50.0448 52.2394 50.025 52.2595C50.0052 52.2796 49.9895 52.3035 49.9789 52.3296C49.9684 52.3558 49.963 52.3837 49.9633 52.412V59.0549C49.9633 59.0549 49.3101 59.5319 48.3841 59.5319C47.4582 59.5319 47.2124 59.1121 47.2124 58.205V52.412C47.2126 52.3837 47.2073 52.3557 47.1967 52.3295C47.186 52.3033 47.1704 52.2795 47.1505 52.2594C47.1307 52.2393 47.1071 52.2233 47.0811 52.2123C47.055 52.2013 47.0271 52.1956 46.9988 52.1954H44.3915C44.3344 52.1958 44.2799 52.2189 44.2398 52.2595C44.1997 52.3001 44.1773 52.3549 44.1775 52.412V58.6433C44.1775 61.3374 45.6793 61.9966 47.7448 61.9966C49.4395 61.9966 50.8059 61.0598 50.8059 61.0598C50.8059 61.0598 50.8703 61.554 50.9004 61.612C50.9305 61.6704 51.0065 61.7293 51.0895 61.7293L52.7481 61.722C52.7764 61.7219 52.8044 61.7162 52.8305 61.7052C52.8567 61.6943 52.8804 61.6783 52.9003 61.6582C52.9203 61.6381 52.9361 61.6143 52.9468 61.588C52.9575 61.5618 52.963 61.5338 52.9629 61.5054L52.9616 52.4107C52.9614 52.3537 52.9387 52.2991 52.8985 52.2587C52.8583 52.2183 52.8038 52.1954 52.7468 52.195L52.7459 52.1954ZM59.7679 51.8912C58.3086 51.8912 57.3161 52.5421 57.3161 52.5421V47.9544C57.3162 47.9262 57.3108 47.8982 57.3002 47.8721C57.2896 47.8459 57.2739 47.8221 57.2541 47.8021C57.2342 47.782 57.2106 47.766 57.1846 47.7551C57.1586 47.7441 57.1307 47.7384 57.1025 47.7382H54.5068C54.4784 47.7382 54.4504 47.7438 54.4242 47.7547C54.3981 47.7656 54.3744 47.7815 54.3544 47.8016C54.3344 47.8217 54.3186 47.8455 54.3079 47.8718C54.2972 47.898 54.2918 47.9261 54.2919 47.9544V61.5024C54.2918 61.5307 54.2972 61.5588 54.3079 61.585C54.3186 61.6112 54.3344 61.6351 54.3544 61.6552C54.3744 61.6753 54.3981 61.6912 54.4242 61.7021C54.4504 61.713 54.4784 61.7186 54.5068 61.7186H56.308C56.3897 61.7186 56.4507 61.6769 56.4958 61.6034C56.54 61.5304 56.6049 60.9786 56.6049 60.9786C56.6049 60.9786 57.6663 61.9841 59.6763 61.9841C62.0353 61.9841 63.3888 60.7879 63.3888 56.6121C63.3888 52.4364 61.2275 51.8907 59.7674 51.8907L59.7679 51.8912ZM58.7538 59.5241C57.8631 59.4971 57.2585 59.0927 57.2585 59.0927V54.8023C57.2585 54.8023 57.8549 54.4371 58.5862 54.3709C59.5113 54.288 60.4029 54.5677 60.4029 56.7746C60.4029 59.1022 60.0012 59.5615 58.7542 59.5237L58.7538 59.5241ZM31.3874 59.4734C31.2744 59.4734 30.9848 59.5194 30.687 59.5194C29.7331 59.5194 29.4096 59.076 29.4096 58.5019V54.6923H31.3518C31.3801 54.6923 31.4082 54.6867 31.4344 54.6758C31.4606 54.6649 31.4843 54.6489 31.5043 54.6288C31.5243 54.6086 31.5401 54.5848 31.5508 54.5585C31.5614 54.5322 31.5668 54.5041 31.5666 54.4757V52.3892C31.5667 52.3609 31.5613 52.3329 31.5505 52.3067C31.5398 52.2805 31.524 52.2567 31.504 52.2367C31.484 52.2167 31.4603 52.2008 31.4342 52.1899C31.4081 52.1791 31.3801 52.1735 31.3518 52.1735H29.4096L29.4066 49.6082C29.4066 49.5107 29.3567 49.4621 29.2442 49.4621H26.5973C26.495 49.4621 26.4396 49.5077 26.4396 49.6061V52.2573C26.4396 52.2573 25.1131 52.5774 25.0238 52.6032C24.9791 52.6162 24.9399 52.6433 24.912 52.6805C24.8841 52.7177 24.8691 52.7629 24.8691 52.8094V54.4753C24.8689 54.5035 24.8743 54.5315 24.8849 54.5576C24.8956 54.5838 24.9113 54.6075 24.9311 54.6276C24.9509 54.6477 24.9745 54.6636 25.0005 54.6746C25.0265 54.6856 25.0544 54.6913 25.0826 54.6914H26.4396V58.6996C26.4396 61.6773 28.5279 61.9695 29.9372 61.9695C30.5805 61.9695 31.3509 61.7632 31.4781 61.716C31.5554 61.6872 31.5997 61.6077 31.5997 61.5213L31.6014 59.6887C31.6005 59.6319 31.5776 59.5777 31.5376 59.5375C31.4975 59.4972 31.4434 59.4741 31.3866 59.473L31.3874 59.4734Z" fill="#100E0F"/>
</svg>
