<svg width="71" height="71" viewBox="0 0 71 71" fill="none" xmlns="http://www.w3.org/2000/svg">
<rect x="0.470215" y="0.792122" width="70" height="70" fill="white"/>
<path d="M54.6644 15.2682C54.2027 13.5615 52.8506 12.2159 51.1356 11.7564C48.0026 10.903 35.4705 10.903 35.4705 10.903C35.4705 10.903 22.9384 10.903 19.8054 11.7235C18.1235 12.183 16.7383 13.5615 16.2766 15.2682C15.4521 18.3861 15.4521 24.8518 15.4521 24.8518C15.4521 24.8518 15.4521 31.3503 16.2766 34.4354C16.7383 36.1421 18.0905 37.4878 19.8054 37.9472C22.9714 38.8006 35.4705 38.8006 35.4705 38.8006C35.4705 38.8006 48.0026 38.8006 51.1356 37.9801C52.8506 37.5206 54.2027 36.1749 54.6644 34.4683C55.4889 31.3503 55.4889 24.8846 55.4889 24.8846C55.4889 24.8846 55.5219 18.3861 54.6644 15.2682Z" fill="#FF0000"/>
<path d="M31.4797 18.8784V30.8252L41.9012 24.8518L31.4797 18.8784Z" fill="white"/>
<path d="M18.0177 58.6455C17.5002 58.3022 17.1337 57.7657 16.9181 57.0148C16.7025 56.2853 16.5947 55.2983 16.5947 54.0967V52.4446C16.5947 51.2216 16.7241 50.2346 16.9612 49.4836C17.22 48.7326 17.608 48.1962 18.1255 47.8529C18.6645 47.5096 19.3544 47.338 20.2168 47.338C21.0576 47.338 21.7476 47.5096 22.265 47.8529C22.7824 48.1962 23.1489 48.7541 23.3861 49.4836C23.6233 50.2131 23.7526 51.2001 23.7526 52.4446V54.0967C23.7526 55.3197 23.6448 56.2853 23.4077 57.0362C23.1705 57.7657 22.804 58.3236 22.2866 58.6669C21.7691 59.0102 21.0576 59.1819 20.1737 59.1819C19.2682 59.1604 18.5351 58.9888 18.0177 58.6455ZM20.9283 56.8431C21.0792 56.4784 21.1439 55.8561 21.1439 55.0193V51.4576C21.1439 50.6423 21.0792 50.0415 20.9283 49.6553C20.7774 49.2691 20.5402 49.0974 20.1737 49.0974C19.8287 49.0974 19.57 49.2905 19.4406 49.6553C19.2897 50.0415 19.225 50.6423 19.225 51.4576V55.0193C19.225 55.8561 19.2897 56.4784 19.4406 56.8431C19.57 57.2079 19.8287 57.401 20.1952 57.401C20.5402 57.401 20.7774 57.2293 20.9283 56.8431Z" fill="#282828"/>
<path d="M57.8174 54.1182V54.6975C57.8174 55.427 57.8389 55.9849 57.882 56.3496C57.9252 56.7144 58.0114 56.9933 58.1623 57.1435C58.2917 57.3152 58.5073 57.401 58.8091 57.401C59.1972 57.401 59.4559 57.2508 59.6068 56.9504C59.7578 56.65 59.8224 56.1565 59.844 55.4485L62.0647 55.5772C62.0862 55.6845 62.0862 55.8132 62.0862 55.9849C62.0862 57.0362 61.806 57.8301 61.2238 58.3451C60.6417 58.86 59.8224 59.1175 58.766 59.1175C57.494 59.1175 56.61 58.7098 56.0926 57.9159C55.5751 57.1221 55.3164 55.899 55.3164 54.2255V52.23C55.3164 50.5135 55.5751 49.2691 56.1141 48.4752C56.6531 47.6813 57.5586 47.2951 58.8307 47.2951C59.7146 47.2951 60.4046 47.4667 60.8789 47.7886C61.3532 48.1104 61.6766 48.6254 61.8706 49.2905C62.0647 49.9771 62.1509 50.9212 62.1509 52.1227V54.0753H57.8174V54.1182ZM58.1408 49.312C58.0114 49.4836 57.9252 49.7411 57.882 50.1059C57.8389 50.4706 57.8174 51.0285 57.8174 51.7794V52.5948H59.7146V51.7794C59.7146 51.0499 59.6931 50.4921 59.65 50.1059C59.6068 49.7196 59.499 49.4622 59.3697 49.312C59.2403 49.1618 59.0247 49.0759 58.766 49.0759C58.4642 49.0545 58.2701 49.1403 58.1408 49.312Z" fill="#282828"/>
<path d="M11.7219 53.9036L8.78979 43.3257H11.3554L12.3903 48.1104C12.649 49.2905 12.8431 50.299 12.9724 51.1358H13.0371C13.1233 50.535 13.3174 49.548 13.6192 48.1319L14.6972 43.3257H17.2629L14.2876 53.9036V58.9673H11.7435V53.9036H11.7219Z" fill="#282828"/>
<path d="M32.0963 47.5526V58.9888H30.0697L29.8541 57.5941H29.7894C29.2504 58.6455 28.4096 59.1819 27.31 59.1819C26.5554 59.1819 25.9949 58.9244 25.6284 58.4309C25.2618 57.9374 25.0894 57.165 25.0894 56.0922V47.5526H27.6765V55.942C27.6765 56.4569 27.7412 56.8217 27.849 57.0362C27.9568 57.2508 28.1509 57.3581 28.4096 57.3581C28.6252 57.3581 28.8408 57.2937 29.0564 57.1435C29.272 57.0148 29.4229 56.8431 29.5091 56.6286V47.5526H32.0963Z" fill="#282828"/>
<path d="M45.3556 47.5526V58.9888H43.329L43.1134 57.5941H43.0487C42.5097 58.6455 41.6689 59.1819 40.5693 59.1819C39.8147 59.1819 39.2542 58.9244 38.8876 58.4309C38.5211 57.9374 38.3486 57.165 38.3486 56.0922V47.5526H40.9358V55.942C40.9358 56.4569 41.0005 56.8217 41.1083 57.0362C41.2161 57.2508 41.4101 57.3581 41.6689 57.3581C41.8845 57.3581 42.1001 57.2937 42.3157 57.1435C42.5313 57.0148 42.6822 56.8431 42.7684 56.6286V47.5526H45.3556Z" fill="#282828"/>
<path d="M39.125 45.4069H36.5593V58.9673H34.0368V45.4069H31.4712V43.3257H39.125V45.4069Z" fill="#282828"/>
<path d="M53.9147 49.3763C53.7638 48.6468 53.5051 48.1319 53.1601 47.81C52.8151 47.4882 52.3193 47.3165 51.7156 47.3165C51.2413 47.3165 50.7885 47.4453 50.3789 47.7242C49.9692 47.9817 49.6458 48.3464 49.4302 48.7756H49.4087V42.7463H46.9077V58.9673H49.0422L49.3009 57.8945H49.3656C49.5596 58.2807 49.8614 58.5811 50.2711 58.8171C50.6807 59.0317 51.1119 59.1604 51.6078 59.1604C52.4917 59.1604 53.117 58.7527 53.5266 57.9589C53.9363 57.165 54.1519 55.8991 54.1519 54.204V52.4017C54.1303 51.0928 54.0656 50.0844 53.9147 49.3763ZM51.5431 54.0324C51.5431 54.8692 51.5 55.5128 51.4353 55.9849C51.3706 56.4569 51.2413 56.8002 51.0903 56.9933C50.9179 57.1864 50.7023 57.2937 50.4436 57.2937C50.228 57.2937 50.0339 57.2508 49.8614 57.1435C49.6889 57.0362 49.538 56.886 49.4302 56.6929V50.2131C49.5165 49.9127 49.6674 49.6553 49.883 49.4407C50.0986 49.2476 50.3357 49.1403 50.5729 49.1403C50.8316 49.1403 51.0472 49.2476 51.1766 49.4407C51.3275 49.6553 51.4137 49.9986 51.4784 50.4706C51.5431 50.9641 51.5647 51.6507 51.5647 52.5304V54.0324H51.5431Z" fill="#282828"/>
</svg>
