<svg width="71" height="70" viewBox="0 0 71 70" fill="none" xmlns="http://www.w3.org/2000/svg">
<g clip-path="url(#clip0_231_603)">
<path d="M0.530273 35V0H70.5303V70H0.530273" fill="#007ACC"/>
<path d="M15.8777 35.1225V37.975H24.9777V63.875H31.4352V37.975H40.5352V35.175C40.5352 33.6 40.5352 32.3225 40.4652 32.2875C40.4652 32.235 34.9177 32.2175 28.1802 32.2175L15.9302 32.27V35.14L15.8777 35.1225ZM56.7752 32.2C58.5602 32.62 59.9252 33.425 61.1502 34.7025C61.7977 35.4025 62.7602 36.6275 62.8302 36.9425C62.8302 37.0475 59.8027 39.095 57.9652 40.2325C57.8952 40.285 57.6152 39.9875 57.3352 39.5325C56.4252 38.2375 55.4977 37.6775 54.0452 37.5725C51.9452 37.4325 50.5452 38.535 50.5452 40.3725C50.5452 40.9325 50.6502 41.2475 50.8602 41.7025C51.3327 42.665 52.2077 43.2425 54.9202 44.4325C59.9252 46.585 62.0952 48.0025 63.4077 50.0325C64.8952 52.3075 65.2277 55.8775 64.2302 58.555C63.1102 61.4775 60.3802 63.455 56.4777 64.1025C55.2527 64.3125 52.4527 64.2775 51.1402 64.05C48.3402 63.525 45.6627 62.125 44.0177 60.3225C43.3702 59.6225 42.1277 57.75 42.1977 57.6275L42.8627 57.2075L45.4877 55.685L47.4652 54.53L47.9202 55.1425C48.4977 56.0525 49.7927 57.2775 50.5452 57.6975C52.8202 58.87 55.8652 58.7125 57.3702 57.3475C58.0177 56.7525 58.2977 56.1225 58.2977 55.2475C58.2977 54.4425 58.1752 54.075 57.7727 53.4625C57.2127 52.6925 56.0927 52.0625 52.9427 50.6625C49.3202 49.1225 47.7802 48.1425 46.3452 46.6375C45.5227 45.7275 44.7702 44.31 44.4202 43.1375C44.1577 42.1225 44.0702 39.6375 44.3152 38.64C45.0677 35.14 47.7102 32.69 51.4902 31.99C52.7152 31.745 55.6027 31.85 56.8102 32.165L56.7752 32.2Z" fill="white"/>
</g>
<defs>
<clipPath id="clip0_231_603">
<rect width="70" height="70" fill="white" transform="translate(0.530273)"/>
</clipPath>
</defs>
</svg>
