<svg width="71" height="71" viewBox="0 0 71 71" fill="none" xmlns="http://www.w3.org/2000/svg">
<rect x="0.530273" y="0.792114" width="70" height="70" fill="white"/>
<path d="M22.9798 26.8719H33.7306V27.7164H23.9653V34.0717H33.1483V34.9161H23.9653V41.8937H33.8426V42.7381H22.9798V26.8719ZM34.6938 26.8719H35.836L40.8978 33.8495L46.0715 26.8718L53.1087 18.0088L41.5472 34.5829L47.505 42.7381H46.3179L40.8978 35.3161L35.4551 42.7381H34.2905L40.293 34.5828L34.6938 26.8719ZM47.9305 27.7164V26.8718H60.1819V27.7163H54.5377V42.738H53.5522V27.7164H47.9305ZM9.53027 26.8718H10.7621L27.7486 51.9912L20.729 42.738L10.5605 28.0719L10.5158 42.7382H9.53027L9.53027 26.8718ZM60.0826 41.6387C59.8812 41.6387 59.7302 41.4847 59.7302 41.2853C59.7302 41.0862 59.8812 40.932 60.0826 40.932C60.2863 40.932 60.4349 41.0861 60.4349 41.2853C60.4349 41.4846 60.2863 41.6387 60.0826 41.6387ZM61.0509 40.7091H61.5783C61.5854 40.9913 61.7939 41.181 62.1007 41.181C62.4435 41.181 62.6377 40.9771 62.6377 40.5952V38.1759H63.1746V40.5975C63.1746 41.2853 62.7719 41.6815 62.1055 41.6815C61.4799 41.6815 61.0509 41.2972 61.0509 40.709V40.7091ZM63.8769 40.6783H64.409C64.4546 41.0031 64.7757 41.2094 65.2384 41.2094C65.6698 41.2094 65.9862 40.9888 65.9862 40.6853C65.9862 40.4244 65.7848 40.2679 65.327 40.1612L64.8812 40.0545C64.2555 39.9097 63.9704 39.6109 63.9704 39.1081C63.9704 38.4986 64.4737 38.093 65.2287 38.093C65.931 38.093 66.444 38.4985 66.4752 39.0749H65.9526C65.9023 38.7595 65.6242 38.5625 65.2215 38.5625C64.7973 38.5625 64.5146 38.7642 64.5146 39.0725C64.5146 39.3167 64.6966 39.4567 65.1472 39.561L65.5283 39.6536C66.2378 39.8173 66.5303 40.1019 66.5303 40.6165C66.5303 41.2711 66.0174 41.6815 65.1977 41.6815C64.4306 41.6815 63.9152 41.2901 63.8769 40.6781V40.6783Z" fill="black"/>
</svg>
