<svg width="71" height="70" viewBox="0 0 71 70" fill="none" xmlns="http://www.w3.org/2000/svg">
<rect x="0.530273" width="70" height="70" fill="white"/>
<path d="M57.8843 38.0005C55.7167 38.0129 53.8397 38.5391 52.2655 39.3225C51.6843 38.1598 51.103 37.1437 51.0063 36.385C50.8973 35.5038 50.7641 34.9651 50.8973 33.9126C51.0304 32.8599 51.6358 31.3667 51.6358 31.2443C51.6236 31.1341 51.5025 30.5956 50.2554 30.5833C49.0082 30.5711 47.9304 30.8281 47.8093 31.1586C47.6882 31.4891 47.446 32.2479 47.2886 33.0312C47.0706 34.1818 44.794 38.2575 43.4983 40.3995C43.0745 39.5672 42.7112 38.8328 42.6384 38.2452C42.5296 37.3641 42.3963 36.8254 42.5296 35.7729C42.6628 34.7202 43.2683 33.2271 43.2683 33.1047C43.2561 32.9945 43.1351 32.456 41.8879 32.4437C40.6405 32.4315 39.5629 32.6885 39.4418 33.019C39.3207 33.3495 39.1875 34.1328 38.9211 34.8917C38.6667 35.6505 35.6393 42.4557 34.8522 44.2305C34.4526 45.1362 34.1016 45.8583 33.8472 46.3479C33.5929 46.8375 33.8351 46.3846 33.8108 46.4336C33.5929 46.8497 33.4718 47.0823 33.4718 47.0823V47.0946C33.3022 47.4006 33.1206 47.6943 33.0357 47.6943C32.9752 47.6943 32.8541 46.8742 33.0599 45.7483C33.508 43.3859 34.5978 39.7019 34.5858 39.5673C34.5858 39.5061 34.7916 38.8573 33.8834 38.5269C32.9994 38.1965 32.6847 38.7473 32.6119 38.7473C32.5392 38.7473 32.4787 38.9431 32.4787 38.9431C32.4787 38.9431 33.4595 34.794 30.6017 34.794C28.8095 34.794 26.3392 36.7646 25.1162 38.5638C24.3412 38.9922 22.6943 39.8978 20.9506 40.8648C20.2845 41.232 19.5943 41.6237 18.9404 41.9786L18.8073 41.8315C15.344 38.0984 8.93818 35.4547 9.20458 30.4365C9.30146 28.6128 9.93115 23.8026 21.5078 17.9766C30.9895 13.2031 38.5821 14.5128 39.9019 17.4258C41.7788 21.5872 35.8452 29.3227 25.9883 30.4365C22.2344 30.8648 20.2604 29.3961 19.7641 28.8453C19.2434 28.27 19.1707 28.2456 18.977 28.3557C18.6621 28.5271 18.8559 29.0411 18.977 29.3471C19.2676 30.1182 20.4785 31.4891 22.5371 32.1745C24.3413 32.7742 28.7492 33.1047 34.0774 31.024C40.0473 28.6862 44.7094 22.1992 43.341 16.7771C41.9485 11.257 32.8906 9.44557 24.3293 12.5177C19.2311 14.3536 13.7093 17.2177 9.7374 20.9753C5.01474 25.4305 4.26396 29.3227 4.5788 30.9383C5.68088 36.7031 13.5397 40.4607 16.6882 43.2391C16.5308 43.3246 16.3854 43.4103 16.2522 43.4838C14.678 44.2671 8.68388 47.4372 7.18232 50.7908C5.487 54.585 7.44872 57.3146 8.75654 57.6818C12.8011 58.82 16.9425 56.776 19.1827 53.4101C21.4107 50.0443 21.1444 45.6747 20.1151 43.6797L20.0787 43.6062L21.3138 42.8719C22.1132 42.3945 22.9003 41.9539 23.5904 41.5744C23.203 42.6392 22.9244 43.8999 22.7792 45.7358C22.6097 47.8901 23.4815 50.6806 24.6319 51.7822C25.1405 52.2594 25.746 52.2717 26.1214 52.2717C27.4534 52.2717 28.0589 51.1578 28.7249 49.8238C29.5483 48.196 30.2749 46.3111 30.2749 46.3111C30.2749 46.3111 29.3667 51.415 31.8491 51.415C32.7573 51.415 33.6655 50.2277 34.0772 49.6158V49.628C34.0772 49.628 34.1015 49.5913 34.1499 49.5056C34.2007 49.4297 34.2492 49.3522 34.2952 49.2732V49.2487C34.6585 48.6122 35.4698 47.1557 36.6808 44.7445C38.2427 41.6357 39.7444 37.7435 39.7444 37.7435C39.7444 37.7435 39.8897 38.6982 40.3378 40.2648C40.6041 41.1952 41.1853 42.2109 41.6334 43.2023C41.2701 43.7164 41.0521 44.0103 41.0521 44.0103L41.0642 44.0225C40.7737 44.4142 40.4466 44.8304 40.1077 45.2465C38.8726 46.7397 37.3952 48.4411 37.2015 48.9307C36.9714 49.5058 37.0198 49.9342 37.4679 50.2771C37.7948 50.5219 38.3761 50.5707 38.9936 50.5219C40.1077 50.4483 40.8827 50.1669 41.2702 49.9954C41.8757 49.7751 42.5659 49.4447 43.2319 48.9551C44.4429 48.0495 45.1815 46.7643 45.1089 45.0508C45.0726 44.1083 44.7698 43.1781 44.3944 42.2969C44.5034 42.1377 44.6125 41.9785 44.7214 41.8073C46.6347 38.9798 48.112 35.8711 48.112 35.8711C48.112 35.8711 48.2573 36.8258 48.7054 38.3924C48.9353 39.188 49.3956 40.0571 49.8073 40.9139C48.0151 42.3949 46.889 44.1084 46.5015 45.2345C45.787 47.3152 46.344 48.2577 47.3976 48.478C47.8697 48.5759 48.5479 48.3556 49.0564 48.1353C49.6861 47.9272 50.449 47.5721 51.1515 47.0459C52.3624 46.1402 53.5249 44.8795 53.4644 43.1782C53.428 42.3949 53.2222 41.6238 52.9436 40.8894C54.4694 40.253 56.4431 39.8858 58.9499 40.1918C64.3386 40.8282 65.4042 44.2308 65.1985 45.6506C64.9926 47.0705 63.8664 47.8537 63.4909 48.0985C63.1155 48.3311 62.9944 48.4169 63.0308 48.5881C63.0792 48.8453 63.2487 48.8329 63.5757 48.7841C64.0237 48.7105 66.4093 47.6213 66.5061 45.0022C66.6515 41.6358 63.4909 37.9639 57.8843 38.0005ZM16.3249 52.1617C14.5448 54.1323 12.0382 54.8789 10.9726 54.2424C9.82216 53.5693 10.2701 50.6685 12.462 48.5755C13.794 47.3026 15.5257 46.1276 16.664 45.4055C16.9183 45.2464 17.3058 45.0139 17.7659 44.7323C17.8386 44.6834 17.887 44.6588 17.887 44.6588C17.9718 44.6099 18.0686 44.5487 18.1655 44.4875C18.9768 47.474 18.2018 50.0932 16.3249 52.1617ZM29.3425 43.2146C28.7249 44.7445 27.4171 48.6734 26.63 48.4531C25.9517 48.2695 25.5401 45.2953 26.4967 42.3578C26.981 40.8767 28.0103 39.1143 28.6158 38.4288C29.5968 37.3272 30.6623 36.96 30.9288 37.4129C31.2436 38.0005 29.73 42.2599 29.3425 43.2146ZM40.0835 48.4042C39.8171 48.5389 39.5749 48.6367 39.4659 48.5634C39.3811 48.5144 39.5748 48.3308 39.5748 48.3308C39.5748 48.3308 40.9189 46.8743 41.4517 46.2012C41.7545 45.8096 42.1177 45.3568 42.5052 44.8426V44.9894C42.5054 46.7518 40.8343 47.9268 40.0835 48.4042ZM48.3662 46.4948C48.1724 46.3479 48.1968 45.895 48.8506 44.4753C49.105 43.9122 49.6861 42.9698 50.6912 42.0763C50.8123 42.4435 50.8851 42.7983 50.8728 43.1289C50.8608 45.332 49.3108 46.1521 48.3662 46.4948Z" fill="#CF649A"/>
</svg>
