<svg width="71" height="70" viewBox="0 0 71 70" fill="none" xmlns="http://www.w3.org/2000/svg">
<rect x="0.530273" width="70" height="70" fill="white"/>
<path d="M40.0328 61.4933C38.6326 63.2565 35.7937 62.2904 35.7599 60.039L35.2666 27.1094H57.4084C61.4189 27.1094 63.6556 31.7416 61.1618 34.8825L40.0328 61.4933Z" fill="url(#paint0_linear_230_857)"/>
<path d="M40.0328 61.4933C38.6326 63.2565 35.7937 62.2904 35.7599 60.039L35.2666 27.1094H57.4084C61.4189 27.1094 63.6556 31.7416 61.1618 34.8825L40.0328 61.4933Z" fill="url(#paint1_linear_230_857)" fill-opacity="0.2"/>
<path d="M31.028 8.50683C32.4281 6.7434 35.2671 7.70963 35.3008 9.96107L35.517 42.8906H13.6523C9.64172 42.8906 7.40494 38.2585 9.89885 35.1176L31.028 8.50683Z" fill="#3ECF8E"/>
<defs>
<linearGradient id="paint0_linear_230_857" x1="35.2666" y1="34.4107" x2="54.9455" y2="42.664" gradientUnits="userSpaceOnUse">
<stop stop-color="#249361"/>
<stop offset="1" stop-color="#3ECF8E"/>
</linearGradient>
<linearGradient id="paint1_linear_230_857" x1="26.542" y1="22.4653" x2="35.5166" y2="39.3594" gradientUnits="userSpaceOnUse">
<stop/>
<stop offset="1" stop-opacity="0"/>
</linearGradient>
</defs>
</svg>
