<svg width="71" height="70" viewBox="0 0 71 70" fill="none" xmlns="http://www.w3.org/2000/svg">
<rect x="0.530273" width="70" height="70" fill="white"/>
<path d="M28.1969 58C32.5209 58 36.0302 54.4907 36.0302 50.1667V42.3333H28.1969C23.8729 42.3333 20.3635 45.8427 20.3635 50.1667C20.3635 54.4907 23.8729 58 28.1969 58Z" fill="#0ACF83"/>
<path d="M20.3635 34.5C20.3635 30.176 23.8729 26.6667 28.1969 26.6667H36.0302V42.3333H28.1969C23.8729 42.3333 20.3635 38.824 20.3635 34.5Z" fill="#A259FF"/>
<path d="M20.3635 18.8333C20.3635 14.5093 23.8729 11 28.1969 11H36.0302V26.6667H28.1969C23.8729 26.6667 20.3635 23.1573 20.3635 18.8333Z" fill="#F24E1E"/>
<path d="M36.0303 11H43.8636C48.1876 11 51.6969 14.5093 51.6969 18.8333C51.6969 23.1573 48.1876 26.6667 43.8636 26.6667H36.0303V11Z" fill="#FF7262"/>
<path d="M51.6969 34.5C51.6969 38.824 48.1876 42.3333 43.8636 42.3333C39.5396 42.3333 36.0303 38.824 36.0303 34.5C36.0303 30.176 39.5396 26.6667 43.8636 26.6667C48.1876 26.6667 51.6969 30.176 51.6969 34.5Z" fill="#1ABCFE"/>
</svg>
