<svg width="105" height="29" viewBox="0 0 105 29" fill="none" xmlns="http://www.w3.org/2000/svg">
<path d="M95.0149 9.06129C95.0149 7.27418 95.436 5.93965 96.2783 5.0577C97.1205 4.17575 98.4962 3.73477 100.405 3.73477C101.641 3.73477 102.745 3.92045 103.718 4.29179V8.01688C102.857 7.64553 101.893 7.45986 100.826 7.45986C99.7783 7.45986 99.0952 7.61072 98.777 7.91244C98.4775 8.19095 98.3278 8.65513 98.3278 9.30499V9.79239C98.3278 10.2566 98.412 10.6279 98.5804 10.9064C98.7676 11.1617 99.1232 11.4867 99.6473 11.8812L101.978 13.5871C103.531 14.7244 104.308 16.1981 104.308 18.0085V18.9136C104.308 22.5343 102.399 24.3446 98.5804 24.3446C97.2328 24.3446 96.0537 24.1821 95.043 23.8572V20.0625C95.9601 20.4106 96.9708 20.5847 98.0751 20.5847C99.1794 20.5847 99.9281 20.4338 100.321 20.1321C100.733 19.8304 100.939 19.3778 100.939 18.7744V18.287C100.939 17.8228 100.826 17.4514 100.602 17.1729C100.396 16.8944 99.9468 16.5115 99.2543 16.0241L97.1486 14.4923C95.7261 13.4711 95.0149 11.9973 95.0149 10.0709V9.06129Z" fill="white"/>
<path d="M86.1815 18.3218V19.3314C86.1815 20.5151 86.6775 21.1069 87.6695 21.1069C88.4369 21.1069 89.1107 20.8516 89.6909 20.341V15.2582L87.6976 15.9544C87.0799 16.1633 86.6682 16.4302 86.4623 16.7552C86.2751 17.0801 86.1815 17.6023 86.1815 18.3218ZM83.6828 4.39623C84.7497 3.95526 86.1628 3.73477 87.9222 3.73477C89.6816 3.73477 90.9637 4.22217 91.7685 5.19695C92.5733 6.14853 92.9757 7.58751 92.9757 9.51387V24.1705H89.7752V22.7083C89.0452 23.7527 88.0158 24.275 86.6869 24.275C85.3767 24.275 84.4128 23.8688 83.7951 23.0565C83.1775 22.2441 82.8687 21.0025 82.8687 19.3314V18.1477C82.8687 16.732 83.14 15.6179 83.6828 14.8056C84.2256 13.9933 85.1053 13.3782 86.3219 12.9604L89.719 11.8116V9.47906C89.7003 8.75957 89.5318 8.23737 89.2137 7.91244C88.8955 7.58751 88.1655 7.42504 87.0238 7.42504C85.8821 7.42504 84.7684 7.66874 83.6828 8.15613V4.39623Z" fill="white"/>
<path d="M73.3413 5.09253C74.614 4.23378 75.8493 3.80441 77.0472 3.80441C78.2638 3.80441 79.1903 4.18737 79.8266 4.95327C80.4817 5.69597 80.8093 6.79841 80.8093 8.26059V24.1705H77.3841V9.16575C77.3841 8.16775 76.9723 7.66875 76.1488 7.66875C75.475 7.66875 74.8105 7.91245 74.1554 8.39985C74.2116 8.60873 74.2397 8.86403 74.2397 9.16575V24.1705H70.7864V9.16575C70.7864 8.16775 70.3746 7.66875 69.5511 7.66875C68.9147 7.66875 68.2783 7.88924 67.642 8.33022V24.1705H64.2449V3.90885H67.4454V4.81402C68.531 4.14095 69.6166 3.80441 70.7022 3.80441C71.8065 3.80441 72.6862 4.23378 73.3413 5.09253Z" fill="white"/>
<path d="M58.8418 0.323029H62.4915L58.3364 12.299L62.4915 24.1705H58.8418L56.5957 16.7204L54.2936 24.1705H50.6157L54.7428 12.299L50.6157 0.323029H54.2655L56.5957 7.84283L58.8418 0.323029Z" fill="white"/>
<path d="M48.2467 19.9232C49.22 19.9232 49.7066 20.4686 49.7066 21.5595C49.7066 22.4182 49.4165 23.5671 48.8363 25.006C48.2748 26.445 47.7133 27.6751 47.1518 28.6963H45.3269L46.5622 19.9232H48.2467Z" fill="white"/>
<path d="M44.2979 3.80441H44.8594V7.70357H44.1014C43.1281 7.70357 42.1922 8.05171 41.2938 8.74798V24.1705H37.8967V3.90885H41.0973V5.33622C41.6401 4.89525 42.0144 4.60513 42.2203 4.46588C42.838 4.0249 43.5305 3.80441 44.2979 3.80441Z" fill="white"/>
<path d="M28.2218 18.3218V19.3314C28.2218 20.5151 28.7178 21.1069 29.7098 21.1069C30.4772 21.1069 31.151 20.8516 31.7312 20.341V15.2582L29.7379 15.9544C29.1202 16.1633 28.7085 16.4302 28.5026 16.7552C28.3154 17.0801 28.2218 17.6023 28.2218 18.3218ZM25.7231 4.39623C26.79 3.95526 28.2031 3.73477 29.9625 3.73477C31.7219 3.73477 33.004 4.22217 33.8088 5.19695C34.6136 6.14853 35.016 7.58751 35.016 9.51387V24.1705H31.8154V22.7083C31.0855 23.7527 30.0561 24.275 28.7272 24.275C27.417 24.275 26.4531 23.8688 25.8354 23.0565C25.2178 22.2441 24.9089 21.0025 24.9089 19.3314V18.1477C24.9089 16.732 25.1803 15.6179 25.7231 14.8056C26.2659 13.9933 27.1456 13.3782 28.3622 12.9604L31.7593 11.8116V9.47906C31.7406 8.75957 31.5721 8.23737 31.2539 7.91244C30.9358 7.58751 30.2058 7.42504 29.0641 7.42504C27.9223 7.42504 26.8087 7.66874 25.7231 8.15613V4.39623Z" fill="white"/>
<path d="M13.2971 18.6351V9.09613C13.2971 7.37865 13.7089 6.03251 14.5324 5.05773C15.3747 4.05973 16.6381 3.56073 18.3226 3.56073C20.0071 3.56073 21.2424 4.05973 22.0285 5.05773C22.8333 6.03251 23.2358 7.37865 23.2358 9.09613V15.7804H16.5819V18.3218C16.5819 19.1573 16.7784 19.7608 17.1715 20.1321C17.5646 20.5035 18.3132 20.6892 19.4175 20.6892C20.5218 20.6892 21.6542 20.4687 22.8146 20.0277V23.7528C21.6542 24.1705 20.3627 24.3794 18.9402 24.3794C15.1782 24.3794 13.2971 22.4647 13.2971 18.6351ZM16.5819 12.5079H20.0913V9.13095C20.0913 7.7616 19.5017 7.07693 18.3226 7.07693C17.1621 7.07693 16.5819 7.7616 16.5819 9.13095V12.5079Z" fill="white"/>
<path d="M7.44629 5.78881C7.44629 4.46588 6.86606 3.80442 5.70562 3.80442H3.37538V20.5499H5.70562C6.86606 20.5499 7.44629 19.8072 7.44629 18.3218V5.78881ZM0.00634766 0.323029H6.12675C7.6241 0.323029 8.77518 0.787214 9.58 1.71558C10.4035 2.62075 10.8153 3.93207 10.8153 5.64955V18.6351C10.8153 22.3254 9.30861 24.1705 6.2952 24.1705H0.00634766V0.323029Z" fill="white"/>
</svg>
