<svg width="105" height="30" viewBox="0 0 105 30" fill="none" xmlns="http://www.w3.org/2000/svg">
<path d="M95.5166 9.41176C95.5166 7.62465 95.9377 6.29011 96.78 5.40816C97.6222 4.52621 98.9979 4.08524 100.907 4.08524C102.142 4.08524 103.247 4.27091 104.22 4.64226V8.36734C103.359 7.99599 102.395 7.81032 101.328 7.81032C100.28 7.81032 99.5969 7.96118 99.2787 8.2629C98.9792 8.54141 98.8295 9.0056 98.8295 9.65545V10.1428C98.8295 10.607 98.9137 10.9784 99.0822 11.2569C99.2693 11.5122 99.6249 11.8371 100.149 12.2317L102.479 13.9376C104.033 15.0748 104.81 16.5486 104.81 18.3589V19.2641C104.81 22.8847 102.9 24.6951 99.0822 24.6951C97.7345 24.6951 96.5554 24.5326 95.5447 24.2077V20.4129C96.4618 20.7611 97.4725 20.9352 98.5768 20.9352C99.6811 20.9352 100.43 20.7843 100.823 20.4826C101.235 20.1809 101.44 19.7283 101.44 19.1248V18.6374C101.44 18.1733 101.328 17.8019 101.104 17.5234C100.898 17.2449 100.448 16.8619 99.756 16.3745L97.6503 14.8427C96.2278 13.8215 95.5166 12.3477 95.5166 10.4214V9.41176Z" fill="#282828"/>
<path d="M86.6832 18.6722V19.6819C86.6832 20.8655 87.1792 21.4574 88.1712 21.4574C88.9386 21.4574 89.6124 21.2021 90.1926 20.6915V15.6086L88.1993 16.3049C87.5816 16.5138 87.1699 16.7807 86.964 17.1056C86.7768 17.4306 86.6832 17.9528 86.6832 18.6722ZM84.1845 4.7467C85.2514 4.30572 86.6645 4.08524 88.4239 4.08524C90.1833 4.08524 91.4654 4.57263 92.2702 5.54742C93.075 6.499 93.4774 7.93797 93.4774 9.86434V24.521H90.2769V23.0588C89.5469 24.1032 88.5175 24.6254 87.1886 24.6254C85.8784 24.6254 84.9145 24.2193 84.2968 23.4069C83.6792 22.5946 83.3704 21.3529 83.3704 19.6819V18.4982C83.3704 17.0824 83.6418 15.9684 84.1845 15.156C84.7273 14.3437 85.607 13.7287 86.8236 13.3109L90.2207 12.1621V9.82953C90.202 9.11004 90.0335 8.58783 89.7154 8.2629C89.3972 7.93797 88.6672 7.77551 87.5255 7.77551C86.3838 7.77551 85.2701 8.0192 84.1845 8.5066V4.7467Z" fill="#282828"/>
<path d="M73.843 5.44299C75.1157 4.58425 76.351 4.15488 77.5489 4.15488C78.7655 4.15488 79.692 4.53783 80.3283 5.30373C80.9834 6.04643 81.311 7.14887 81.311 8.61105V24.521H77.8858V9.51621C77.8858 8.51822 77.474 8.01922 76.6505 8.01922C75.9767 8.01922 75.3122 8.26291 74.6571 8.75031C74.7133 8.95919 74.7414 9.21449 74.7414 9.51621V24.521H71.2881V9.51621C71.2881 8.51822 70.8763 8.01922 70.0528 8.01922C69.4164 8.01922 68.7801 8.23971 68.1437 8.68068V24.521H64.7466V4.25932H67.9472V5.16448C69.0327 4.49141 70.1183 4.15488 71.2039 4.15488C72.3082 4.15488 73.1879 4.58425 73.843 5.44299Z" fill="#282828"/>
<path d="M59.3435 0.673492H62.9933L58.8381 12.6495L62.9933 24.521H59.3435L57.0975 17.0708L54.7953 24.521H51.1174L55.2445 12.6495L51.1174 0.673492H54.7672L57.0975 8.19329L59.3435 0.673492Z" fill="#282828"/>
<path d="M48.7484 20.2737C49.7217 20.2737 50.2084 20.8191 50.2084 21.9099C50.2084 22.7687 49.9182 23.9176 49.338 25.3565C48.7765 26.7955 48.215 28.0256 47.6535 29.0468H45.8286L47.0639 20.2737H48.7484Z" fill="#282828"/>
<path d="M44.7996 4.15488H45.3611V8.05403H44.6031C43.6298 8.05403 42.694 8.40217 41.7955 9.09845V24.521H38.3984V4.25932H41.599V5.68669C42.1418 5.24571 42.5161 4.9556 42.722 4.81634C43.3397 4.37536 44.0322 4.15488 44.7996 4.15488Z" fill="#282828"/>
<path d="M28.7235 18.6722V19.6819C28.7235 20.8655 29.2195 21.4574 30.2115 21.4574C30.9789 21.4574 31.6527 21.2021 32.2329 20.6915V15.6086L30.2396 16.3049C29.6219 16.5138 29.2102 16.7807 29.0043 17.1056C28.8171 17.4306 28.7235 17.9528 28.7235 18.6722ZM26.2248 4.7467C27.2917 4.30572 28.7048 4.08524 30.4642 4.08524C32.2236 4.08524 33.5057 4.57263 34.3105 5.54742C35.1153 6.499 35.5177 7.93797 35.5177 9.86434V24.521H32.3172V23.0588C31.5872 24.1032 30.5578 24.6254 29.2289 24.6254C27.9187 24.6254 26.9548 24.2193 26.3371 23.4069C25.7195 22.5946 25.4106 21.3529 25.4106 19.6819V18.4982C25.4106 17.0824 25.682 15.9684 26.2248 15.156C26.7676 14.3437 27.6473 13.7287 28.8639 13.3109L32.261 12.1621V9.82953C32.2423 9.11004 32.0738 8.58783 31.7556 8.2629C31.4375 7.93797 30.7075 7.77551 29.5658 7.77551C28.4241 7.77551 27.3104 8.0192 26.2248 8.5066V4.7467Z" fill="#282828"/>
<path d="M13.7988 18.9856V9.4466C13.7988 7.72911 14.2106 6.38298 15.0341 5.40819C15.8764 4.41019 17.1398 3.91119 18.8243 3.91119C20.5088 3.91119 21.7441 4.41019 22.5302 5.40819C23.3351 6.38298 23.7375 7.72911 23.7375 9.4466V16.1309H17.0836V18.6723C17.0836 19.5078 17.2802 20.1112 17.6732 20.4826C18.0663 20.8539 18.8149 21.0396 19.9192 21.0396C21.0235 21.0396 22.1559 20.8191 23.3163 20.3782V24.1032C22.1559 24.521 20.8644 24.7299 19.442 24.7299C15.6799 24.7299 13.7988 22.8151 13.7988 18.9856ZM17.0836 12.8584H20.593V9.48141C20.593 8.11207 20.0035 7.42739 18.8243 7.42739C17.6639 7.42739 17.0836 8.11207 17.0836 9.48141V12.8584Z" fill="#282828"/>
<path d="M7.94799 6.13927C7.94799 4.81634 7.36777 4.15488 6.20733 4.15488H3.87709V20.9004H6.20733C7.36777 20.9004 7.94799 20.1577 7.94799 18.6723V6.13927ZM0.508057 0.673492H6.62846C8.12581 0.673492 9.27689 1.13768 10.0817 2.06605C10.9053 2.97121 11.317 4.28253 11.317 6.00002V18.9856C11.317 22.6759 9.81032 24.521 6.79691 24.521H0.508057V0.673492Z" fill="#282828"/>
</svg>
