<svg width="74" height="23" viewBox="0 0 74 23" fill="none" xmlns="http://www.w3.org/2000/svg">
<g clip-path="url(#clip0_145_585)">
<path d="M12.796 22.2502C12.079 21.7693 11.5706 21.0195 11.2707 19.9685C10.9721 18.9473 10.8228 17.5667 10.8228 15.8848V13.5722C10.8228 11.8607 11.0017 10.48 11.3312 9.42903C11.6903 8.37806 12.2284 7.62701 12.9454 7.14737C13.6932 6.6665 14.6496 6.42731 15.8454 6.42731C17.0116 6.42731 17.968 6.66774 18.6863 7.14737C19.4033 7.62824 19.9117 8.40904 20.2412 9.42903C20.5707 10.4503 20.7496 11.8309 20.7496 13.5722V15.8848C20.7496 17.5964 20.6003 18.9473 20.2708 19.9983C19.9413 21.0195 19.4341 21.8003 18.7159 22.2799C17.9989 22.7608 17.0116 23 15.7862 23C14.5311 22.9703 13.5143 22.7298 12.796 22.2502ZM16.8327 19.7281C17.0425 19.2175 17.1313 18.3474 17.1313 17.1763V12.1903C17.1313 11.0489 17.0413 10.2086 16.8327 9.66823C16.6229 9.12787 16.2946 8.88743 15.7862 8.88743C15.3074 8.88743 14.9495 9.15761 14.7693 9.66823C14.5595 10.2086 14.4707 11.0489 14.4707 12.1903V17.175C14.4707 18.3462 14.5608 19.2162 14.7693 19.7269C14.9483 20.2375 15.3074 20.5076 15.8158 20.5076C16.2946 20.5089 16.6241 20.2685 16.8327 19.7281Z" fill="#282828"/>
<path d="M67.99 15.9146V16.7251C67.99 17.7464 68.0196 18.5272 68.08 19.0378C68.1393 19.5484 68.259 19.9388 68.4688 20.1482C68.6477 20.3887 68.9476 20.5089 69.366 20.5089C69.904 20.5089 70.2631 20.2982 70.4717 19.8781C70.6815 19.4579 70.7703 18.7676 70.8012 17.7761L73.8802 17.9558C73.9098 18.1058 73.9098 18.2867 73.9098 18.5259C73.9098 19.997 73.5211 21.1087 72.714 21.8288C71.9069 22.5489 70.7703 22.9095 69.3055 22.9095C67.542 22.9095 66.3153 22.3394 65.5983 21.2277C64.8813 20.1173 64.5222 18.4057 64.5222 16.0633V13.271C64.5222 10.8692 64.8813 9.12787 65.6279 8.01617C66.3758 6.9057 67.6308 6.36411 69.3956 6.36411C70.621 6.36411 71.5786 6.60454 72.2364 7.05443C72.8942 7.50431 73.3421 8.22562 73.6112 9.15638C73.8802 10.1169 73.9999 11.438 73.9999 13.1198V15.8526H67.99V15.9146ZM68.4379 9.1886C68.259 9.42904 68.1393 9.78969 68.0788 10.2991C68.0196 10.8097 67.9887 11.5905 67.9887 12.6415V13.7829H70.6198V12.6415C70.6198 11.6202 70.5902 10.8394 70.5297 10.2991C70.4705 9.75871 70.3199 9.39805 70.141 9.1886C69.962 8.97791 69.6621 8.85769 69.3043 8.85769C68.8871 8.82795 68.6181 8.94817 68.4379 9.1886Z" fill="#282828"/>
<path d="M4.06627 15.6134L0 0.810547H3.55783L4.99306 7.5068C5.35218 9.15886 5.62121 10.5692 5.80015 11.7404H5.89023C6.00994 10.9002 6.27897 9.51827 6.69732 7.53654L8.19178 0.810547H11.7496L7.62411 15.6134V22.7001H4.09589V15.6134H4.06627Z" fill="#282828"/>
<path d="M32.3204 6.726V22.7298H29.5104L29.2117 20.7778H29.1216C28.3738 22.249 27.2076 23 25.6835 23C24.637 23 23.8596 22.6394 23.3511 21.949C22.8427 21.2587 22.6033 20.178 22.6033 18.6759V6.726H26.1907V18.4664C26.1907 19.1865 26.2808 19.6971 26.4301 19.9983C26.5795 20.2982 26.8485 20.4482 27.2076 20.4482C27.5062 20.4482 27.8061 20.3577 28.1048 20.1482C28.4034 19.9685 28.6132 19.7281 28.7329 19.4282V6.726H32.3204Z" fill="#282828"/>
<path d="M50.7081 6.726V22.7298H47.8981L47.5994 20.7778H47.5093C46.7615 22.249 45.5953 23 44.0712 23C43.0247 23 42.2473 22.6394 41.7388 21.949C41.2304 21.2587 40.991 20.178 40.991 18.6759V6.726H44.5784V18.4664C44.5784 19.1865 44.6685 19.6971 44.8178 19.9983C44.9672 20.2982 45.2362 20.4482 45.5953 20.4482C45.8939 20.4482 46.1938 20.3577 46.4925 20.1482C46.7911 19.9685 47.0009 19.7281 47.1206 19.4282V6.726H50.7081Z" fill="#282828"/>
<path d="M42.0672 3.72304H38.5093V22.7001H35.0107V3.72304H31.4529V0.810547H42.0672V3.72304Z" fill="#282828"/>
<path d="M62.5787 9.27783C62.3689 8.2566 62.011 7.53653 61.5322 7.08541C61.0533 6.63552 60.366 6.39509 59.5293 6.39509C58.8715 6.39509 58.2434 6.57479 57.6757 6.96519C57.108 7.32584 56.6588 7.83646 56.3602 8.43631H56.3305V0H52.8628V22.7001H55.8233L56.1825 21.1992H56.2725C56.5416 21.7396 56.9599 22.1597 57.5288 22.4906C58.0965 22.7905 58.695 22.9715 59.3824 22.9715C60.6078 22.9715 61.4754 22.4014 62.0431 21.2897C62.6107 20.1792 62.9106 18.4069 62.9106 16.0348V13.5127C62.8773 11.6809 62.7872 10.2693 62.5787 9.27783ZM59.2899 15.7944C59.2899 16.9656 59.2306 17.8666 59.1405 18.5272C59.0504 19.1877 58.8715 19.6686 58.6617 19.9388C58.4223 20.209 58.1236 20.3589 57.7645 20.3589C57.4659 20.3589 57.1969 20.2994 56.9575 20.1482C56.718 19.9983 56.5095 19.7876 56.3589 19.5174V10.449C56.4786 10.0289 56.6884 9.66823 56.9871 9.3683C57.2857 9.09812 57.6152 8.94816 57.9435 8.94816C58.3026 8.94816 58.6012 9.09812 58.7802 9.3683C58.99 9.66823 59.1097 10.1491 59.1985 10.8097C59.2886 11.5 59.3182 12.4617 59.3182 13.6924V15.7944H59.2899Z" fill="#282828"/>
</g>
<defs>
<clipPath id="clip0_145_585">
<rect width="74" height="23" fill="white"/>
</clipPath>
</defs>
</svg>
