<svg width="11" height="18" viewBox="0 0 11 18" fill="none" xmlns="http://www.w3.org/2000/svg">
<path fill-rule="evenodd" clip-rule="evenodd" d="M9.66647 16.8799C9.61042 16.9361 9.54384 16.9807 9.47053 17.0111C9.39722 17.0415 9.31863 17.0572 9.23926 17.0572C9.15989 17.0572 9.0813 17.0415 9.00799 17.0111C8.93468 16.9807 8.86809 16.9361 8.81204 16.8799L1.57108 9.63895C1.51489 9.5829 1.47031 9.51632 1.43989 9.44301C1.40947 9.3697 1.39381 9.29111 1.39381 9.21174C1.39381 9.13237 1.40947 9.05378 1.43989 8.98047C1.47031 8.90716 1.51489 8.84057 1.57108 8.78452L8.81204 1.54356C8.92535 1.43026 9.07902 1.3666 9.23926 1.3666C9.3995 1.3666 9.55317 1.43026 9.66648 1.54356C9.77978 1.65687 9.84344 1.81054 9.84344 1.97078C9.84344 2.13102 9.77978 2.28469 9.66648 2.398L2.85152 9.21174L9.66647 16.0255C9.72267 16.0815 9.76725 16.1481 9.79767 16.2214C9.82809 16.2947 9.84375 16.3733 9.84375 16.4527C9.84375 16.5321 9.82809 16.6107 9.79767 16.684C9.76725 16.7573 9.72267 16.8239 9.66647 16.8799Z" fill="#DA3017" stroke="#DA3017" stroke-linecap="round"/>
</svg>
